<mxfile host="app.diagrams.net" modified="2023-03-23T12:24:21.487Z" agent="5.0 (Windows)" etag="z0ReqLs4tJMIARc9Drdr" version="21.0.10" type="github">
  <diagram id="C5RBs43oDa-KdzZeNtuy" name="Page-1">
    <mxGraphModel dx="2261" dy="782" grid="1" gridSize="10" guides="1" tooltips="1" connect="1" arrows="1" fold="1" page="1" pageScale="1" pageWidth="827" pageHeight="1169" math="0" shadow="0">
      <root>
        <mxCell id="WIyWlLk6GJQsqaUBKTNV-0" />
        <mxCell id="WIyWlLk6GJQsqaUBKTNV-1" parent="WIyWlLk6GJQsqaUBKTNV-0" />
        <mxCell id="Ru8AQKbT1mF2pb85kRSk-2" value="" style="edgeStyle=orthogonalEdgeStyle;rounded=0;orthogonalLoop=1;jettySize=auto;html=1;" edge="1" parent="WIyWlLk6GJQsqaUBKTNV-1" source="Ru8AQKbT1mF2pb85kRSk-0" target="Ru8AQKbT1mF2pb85kRSk-1">
          <mxGeometry relative="1" as="geometry" />
        </mxCell>
        <mxCell id="Ru8AQKbT1mF2pb85kRSk-0" value="START" style="ellipse;whiteSpace=wrap;html=1;" vertex="1" parent="WIyWlLk6GJQsqaUBKTNV-1">
          <mxGeometry x="170" y="110" width="120" height="80" as="geometry" />
        </mxCell>
        <mxCell id="Ru8AQKbT1mF2pb85kRSk-12" value="" style="edgeStyle=orthogonalEdgeStyle;rounded=0;orthogonalLoop=1;jettySize=auto;html=1;" edge="1" parent="WIyWlLk6GJQsqaUBKTNV-1" source="Ru8AQKbT1mF2pb85kRSk-1" target="Ru8AQKbT1mF2pb85kRSk-11">
          <mxGeometry relative="1" as="geometry" />
        </mxCell>
        <mxCell id="Ru8AQKbT1mF2pb85kRSk-1" value="&lt;div&gt;podaj x &lt;br&gt;&lt;/div&gt;&lt;div&gt;podaj n&lt;/div&gt;&lt;div&gt;wynik = 1&lt;br&gt;&lt;/div&gt;" style="whiteSpace=wrap;html=1;" vertex="1" parent="WIyWlLk6GJQsqaUBKTNV-1">
          <mxGeometry x="170" y="280" width="120" height="60" as="geometry" />
        </mxCell>
        <mxCell id="Ru8AQKbT1mF2pb85kRSk-14" value="" style="edgeStyle=orthogonalEdgeStyle;rounded=0;orthogonalLoop=1;jettySize=auto;html=1;" edge="1" parent="WIyWlLk6GJQsqaUBKTNV-1" source="Ru8AQKbT1mF2pb85kRSk-11" target="Ru8AQKbT1mF2pb85kRSk-13">
          <mxGeometry relative="1" as="geometry">
            <Array as="points">
              <mxPoint x="170" y="420" />
              <mxPoint x="170" y="420" />
            </Array>
          </mxGeometry>
        </mxCell>
        <mxCell id="Ru8AQKbT1mF2pb85kRSk-17" value="TAK" style="edgeLabel;html=1;align=center;verticalAlign=middle;resizable=0;points=[];" vertex="1" connectable="0" parent="Ru8AQKbT1mF2pb85kRSk-14">
          <mxGeometry x="-0.2042" y="2" relative="1" as="geometry">
            <mxPoint y="-2" as="offset" />
          </mxGeometry>
        </mxCell>
        <mxCell id="Ru8AQKbT1mF2pb85kRSk-16" value="" style="edgeStyle=orthogonalEdgeStyle;rounded=0;orthogonalLoop=1;jettySize=auto;html=1;" edge="1" parent="WIyWlLk6GJQsqaUBKTNV-1" source="Ru8AQKbT1mF2pb85kRSk-11" target="Ru8AQKbT1mF2pb85kRSk-15">
          <mxGeometry relative="1" as="geometry" />
        </mxCell>
        <mxCell id="Ru8AQKbT1mF2pb85kRSk-18" value="NIE" style="edgeLabel;html=1;align=center;verticalAlign=middle;resizable=0;points=[];" vertex="1" connectable="0" parent="Ru8AQKbT1mF2pb85kRSk-16">
          <mxGeometry x="-0.3095" y="-1" relative="1" as="geometry">
            <mxPoint x="-1" y="-1" as="offset" />
          </mxGeometry>
        </mxCell>
        <mxCell id="Ru8AQKbT1mF2pb85kRSk-11" value="n&amp;gt;0" style="rhombus;whiteSpace=wrap;html=1;" vertex="1" parent="WIyWlLk6GJQsqaUBKTNV-1">
          <mxGeometry x="190" y="380" width="80" height="80" as="geometry" />
        </mxCell>
        <mxCell id="Ru8AQKbT1mF2pb85kRSk-13" value="&lt;div&gt;wynik = wynik*x&lt;/div&gt;&lt;div&gt;n=n-1&lt;br&gt;&lt;/div&gt;" style="whiteSpace=wrap;html=1;" vertex="1" parent="WIyWlLk6GJQsqaUBKTNV-1">
          <mxGeometry x="10" y="390" width="120" height="60" as="geometry" />
        </mxCell>
        <mxCell id="Ru8AQKbT1mF2pb85kRSk-22" value="" style="edgeStyle=orthogonalEdgeStyle;rounded=0;orthogonalLoop=1;jettySize=auto;html=1;" edge="1" parent="WIyWlLk6GJQsqaUBKTNV-1" source="Ru8AQKbT1mF2pb85kRSk-15" target="Ru8AQKbT1mF2pb85kRSk-21">
          <mxGeometry relative="1" as="geometry" />
        </mxCell>
        <mxCell id="Ru8AQKbT1mF2pb85kRSk-15" value="&lt;div&gt;wynik&lt;/div&gt;&lt;div&gt;&lt;br&gt;&lt;/div&gt;" style="whiteSpace=wrap;html=1;" vertex="1" parent="WIyWlLk6GJQsqaUBKTNV-1">
          <mxGeometry x="330" y="390" width="120" height="60" as="geometry" />
        </mxCell>
        <mxCell id="Ru8AQKbT1mF2pb85kRSk-20" value="" style="endArrow=classic;html=1;rounded=0;exitX=0.5;exitY=1;exitDx=0;exitDy=0;entryX=0;entryY=0.5;entryDx=0;entryDy=0;" edge="1" parent="WIyWlLk6GJQsqaUBKTNV-1" source="Ru8AQKbT1mF2pb85kRSk-13" target="Ru8AQKbT1mF2pb85kRSk-1">
          <mxGeometry width="50" height="50" relative="1" as="geometry">
            <mxPoint x="60" y="530" as="sourcePoint" />
            <mxPoint x="-80" y="300" as="targetPoint" />
            <Array as="points">
              <mxPoint x="70" y="520" />
              <mxPoint x="-80" y="520" />
              <mxPoint x="-80" y="310" />
            </Array>
          </mxGeometry>
        </mxCell>
        <mxCell id="Ru8AQKbT1mF2pb85kRSk-21" value="STOP" style="ellipse;whiteSpace=wrap;html=1;" vertex="1" parent="WIyWlLk6GJQsqaUBKTNV-1">
          <mxGeometry x="350" y="520" width="80" height="80" as="geometry" />
        </mxCell>
      </root>
    </mxGraphModel>
  </diagram>
</mxfile>
